<svg xmlns="http://www.w3.org/2000/svg" version="1.1" xmlns:xlink="http://www.w3.org/1999/xlink" width="2000" height="321" viewBox="0 0 2000 321"><svg xml:space="preserve" width="2000" height="321" data-version="2" data-id="lg_rIv4o8zKhK54pcrFc6" viewBox="0 0 368 321" x="0" y="0"><rect width="100%" height="100%" fill="transparent"></rect><g transform="translate(180.35 102.57)scale(7.3583)"><linearGradient id="a" x1="0" x2="1" y1="0" y2="0" gradientUnits="objectBoundingBox"><stop offset="0%" stop-color="#eaa79c"></stop><stop offset="49.8%" stop-color="#f2e8cb"></stop><stop offset="100%" stop-color="#eaa79c"></stop></linearGradient><path fill="url(#a)" d="M42.675 32.17a.999.999 0 0 1-.324-.054 2.663 2.663 0 0 0-.868-.145H10.517c-.294 0-.586.049-.868.145a1 1 0 0 1-1.324-.946V8.642a3.56 3.56 0 0 1 3.557-3.557h28.236a3.56 3.56 0 0 1 3.557 3.557V31.17a1 1 0 0 1-1 1m-32.158-2.2h30.966a4.1 4.1 0 0 1 .192.005V8.642c0-.859-.698-1.557-1.557-1.557H11.882c-.859 0-1.557.698-1.557 1.557v21.333a4.1 4.1 0 0 1 .192-.004z" transform="translate(-26 -18.63)"></path></g><g transform="translate(180.32 249.11)scale(7.3583)"><linearGradient id="b" x1="0" x2="1" y1="0" y2="0" gradientUnits="objectBoundingBox"><stop offset="0%" stop-color="#eaa79c"></stop><stop offset="49.8%" stop-color="#f2e8cb"></stop><stop offset="100%" stop-color="#eaa79c"></stop></linearGradient><path fill="url(#b)" d="M46.806 46.915H5.194a3.16 3.16 0 0 1-2.571-1.3 3.161 3.161 0 0 1-.477-2.842l3.922-9.59c.414-1.34 1.522-2.477 2.934-2.96a1 1 0 1 1 .646 1.893A2.696 2.696 0 0 0 7.95 33.86l-3.923 9.59c-.085.283-.02.67.207.979.228.31.579.486.961.486h41.612c.382 0 .733-.177.96-.486a1.18 1.18 0 0 0 .178-1.062l-3.864-9.426c-.283-.896-.918-1.548-1.728-1.825a1 1 0 0 1 .646-1.892 4.706 4.706 0 0 1 2.963 3.04l3.864 9.427c.334 1.062.16 2.097-.448 2.923a3.16 3.16 0 0 1-2.571 1.301z" transform="translate(-26 -38.54)"></path></g><g transform="translate(180.35 194.13)scale(7.3583)"><linearGradient id="c" x1="0" x2="1" y1="0" y2="0" gradientUnits="objectBoundingBox"><stop offset="0%" stop-color="#eaa79c"></stop><stop offset="49.8%" stop-color="#f2e8cb"></stop><stop offset="100%" stop-color="#eaa79c"></stop></linearGradient><path fill="url(#c)" d="M42.675 32.17c-.108 0-.217-.018-.324-.054a2.663 2.663 0 0 0-.868-.145H10.517c-.294 0-.586.049-.868.145a1.001 1.001 0 0 1-.648-1.893c.49-.167 1-.252 1.516-.252h30.966c.516 0 1.026.085 1.516.253a1.001 1.001 0 0 1-.324 1.946" transform="translate(-26 -31.07)"></path></g><g transform="translate(180.35 277.7)scale(7.3583)"><linearGradient id="d" x1="0" x2="1" y1="0" y2="0" gradientUnits="objectBoundingBox"><stop offset="0%" stop-color="#eaa79c"></stop><stop offset="49.8%" stop-color="#f2e8cb"></stop><stop offset="100%" stop-color="#eaa79c"></stop></linearGradient><path fill="url(#d)" d="M33.823 46.915H18.177a1 1 0 0 1-.934-1.357l2.06-5.39a3.48 3.48 0 0 1 3.233-2.226h6.928c1.425 0 2.723.895 3.233 2.226l2.06 5.39a1 1 0 0 1-.934 1.357m-14.193-2h12.74l-1.54-4.032a1.471 1.471 0 0 0-1.366-.94h-6.928c-.601 0-1.15.377-1.364.94z" transform="translate(-26 -42.43)"></path></g><g transform="translate(180.35 102.57)scale(7.3583)"><linearGradient id="e" x1="0" x2="1" y1="0" y2="0" gradientUnits="objectBoundingBox"><stop offset="0%" stop-color="#eaa79c"></stop><stop offset="49.8%" stop-color="#f2e8cb"></stop><stop offset="100%" stop-color="#eaa79c"></stop></linearGradient><path fill="url(#e)" d="M42.675 32.17a.999.999 0 0 1-.324-.054 2.663 2.663 0 0 0-.868-.145H10.517c-.294 0-.586.049-.868.145a1 1 0 0 1-1.324-.946V8.642a3.56 3.56 0 0 1 3.557-3.557h28.236a3.56 3.56 0 0 1 3.557 3.557V31.17a1 1 0 0 1-1 1m-32.158-2.2h30.966a4.1 4.1 0 0 1 .192.005V8.642c0-.859-.698-1.557-1.557-1.557H11.882c-.859 0-1.557.698-1.557 1.557v21.333a4.1 4.1 0 0 1 .192-.004z" transform="translate(-26 -18.63)"></path></g><g transform="translate(180.32 249.11)scale(7.3583)"><linearGradient id="f" x1="0" x2="1" y1="0" y2="0" gradientUnits="objectBoundingBox"><stop offset="0%" stop-color="#eaa79c"></stop><stop offset="49.8%" stop-color="#f2e8cb"></stop><stop offset="100%" stop-color="#eaa79c"></stop></linearGradient><path fill="url(#f)" d="M46.806 46.915H5.194a3.16 3.16 0 0 1-2.571-1.3 3.161 3.161 0 0 1-.477-2.842l3.922-9.59c.414-1.34 1.522-2.477 2.934-2.96a1 1 0 1 1 .646 1.893A2.696 2.696 0 0 0 7.95 33.86l-3.923 9.59c-.085.283-.02.67.207.979.228.31.579.486.961.486h41.612c.382 0 .733-.177.96-.486a1.18 1.18 0 0 0 .178-1.062l-3.864-9.426c-.283-.896-.918-1.548-1.728-1.825a1 1 0 0 1 .646-1.892 4.706 4.706 0 0 1 2.963 3.04l3.864 9.427c.334 1.062.16 2.097-.448 2.923a3.16 3.16 0 0 1-2.571 1.301z" transform="translate(-26 -38.54)"></path></g><g transform="translate(180.35 194.13)scale(7.3583)"><linearGradient id="g" x1="0" x2="1" y1="0" y2="0" gradientUnits="objectBoundingBox"><stop offset="0%" stop-color="#eaa79c"></stop><stop offset="49.8%" stop-color="#f2e8cb"></stop><stop offset="100%" stop-color="#eaa79c"></stop></linearGradient><path fill="url(#g)" d="M42.675 32.17c-.108 0-.217-.018-.324-.054a2.663 2.663 0 0 0-.868-.145H10.517c-.294 0-.586.049-.868.145a1.001 1.001 0 0 1-.648-1.893c.49-.167 1-.252 1.516-.252h30.966c.516 0 1.026.085 1.516.253a1.001 1.001 0 0 1-.324 1.946" transform="translate(-26 -31.07)"></path></g><g transform="translate(180.35 277.7)scale(7.3583)"><linearGradient id="h" x1="0" x2="1" y1="0" y2="0" gradientUnits="objectBoundingBox"><stop offset="0%" stop-color="#eaa79c"></stop><stop offset="49.8%" stop-color="#f2e8cb"></stop><stop offset="100%" stop-color="#eaa79c"></stop></linearGradient><path fill="url(#h)" d="M33.823 46.915H18.177a1 1 0 0 1-.934-1.357l2.06-5.39a3.48 3.48 0 0 1 3.233-2.226h6.928c1.425 0 2.723.895 3.233 2.226l2.06 5.39a1 1 0 0 1-.934 1.357m-14.193-2h12.74l-1.54-4.032a1.471 1.471 0 0 0-1.366-.94h-6.928c-.601 0-1.15.377-1.364.94z" transform="translate(-26 -42.43)"></path></g><g transform="translate(180.35 67.7)scale(7.3583)"><linearGradient id="i" x1="0" x2="1" y1="0" y2="0" gradientUnits="objectBoundingBox"><stop offset="0%" stop-color="#eaa79c"></stop><stop offset="49.8%" stop-color="#f2e8cb"></stop><stop offset="100%" stop-color="#eaa79c"></stop></linearGradient><path fill="url(#i)" d="M33.24 18.886a1 1 0 0 1-1-1v-1.072c0-4.091-3.134-5.922-6.24-5.922-3.106 0-6.24 1.83-6.24 5.922v1.072a1 1 0 1 1-2 0v-1.072c0-4.665 3.388-7.922 8.24-7.922s8.24 3.257 8.24 7.922v1.072a1 1 0 0 1-1 1" transform="translate(-26 -13.89)"></path></g><g transform="translate(109.57 118.95)scale(7.3583)"><linearGradient id="j" x1="0" x2="1" y1="0" y2="0" gradientUnits="objectBoundingBox"><stop offset="0%" stop-color="#eaa79c"></stop><stop offset="49.8%" stop-color="#f2e8cb"></stop><stop offset="100%" stop-color="#eaa79c"></stop></linearGradient><path fill="url(#j)" d="M18.76 24.822h-1.792A3.973 3.973 0 0 1 13 20.854a3.973 3.973 0 0 1 3.968-3.968h1.792a1 1 0 0 1 1 1v5.936a1 1 0 0 1-1 1m-1.792-5.936A1.97 1.97 0 0 0 15 20.854a1.97 1.97 0 0 0 1.968 1.968h.792v-3.936z" transform="translate(-16.38 -20.85)"></path></g><g transform="translate(251.14 118.95)scale(7.3583)"><linearGradient id="k" x1="0" x2="1" y1="0" y2="0" gradientUnits="objectBoundingBox"><stop offset="0%" stop-color="#eaa79c"></stop><stop offset="49.8%" stop-color="#f2e8cb"></stop><stop offset="100%" stop-color="#eaa79c"></stop></linearGradient><path fill="url(#k)" d="M35.032 24.822H33.24a1 1 0 0 1-1-1v-5.936a1 1 0 0 1 1-1h1.792A3.973 3.973 0 0 1 39 20.854a3.973 3.973 0 0 1-3.968 3.968m-.792-2h.792A1.97 1.97 0 0 0 37 20.854a1.97 1.97 0 0 0-1.968-1.968h-.792z" transform="translate(-35.62 -20.85)"></path></g><g transform="translate(136.14 153.83)scale(7.3583)"><linearGradient id="l" x1="0" x2="1" y1="0" y2="0" gradientUnits="objectBoundingBox"><stop offset="0%" stop-color="#eaa79c"></stop><stop offset="49.8%" stop-color="#f2e8cb"></stop><stop offset="100%" stop-color="#eaa79c"></stop></linearGradient><path fill="url(#l)" d="M22.521 28.364h-5.06a1 1 0 0 1-1-1v-3.542a1 1 0 1 1 2 0v2.542h4.06a1 1 0 1 1 0 2" transform="translate(-20 -25.6)"></path></g></svg></svg>