<svg xmlns="http://www.w3.org/2000/svg" version="1.1" xmlns:xlink="http://www.w3.org/1999/xlink" width="547" height="96" viewBox="0 0 547 96"><svg xml:space="preserve" width="547" height="96" data-version="2" data-id="lg_EdBJ5rXNGppdAL7lPG" viewBox="0 0 547 96" x="0" y="0"><rect width="100%" height="100%" fill="transparent"></rect><path fill="#fff" d="M145.518 15.54q0 1.98 1.49 3.47 1.48 1.48 3.46 1.48 2.07 0 3.51-1.48 1.44-1.49 1.44-3.47 0-2.07-1.44-3.51t-3.51-1.44q-1.98 0-3.46 1.44-1.49 1.44-1.49 3.51m1.35 17.1v41.4h7.2v-41.4Z"></path><rect width="9.9" height="63.45" x="-4.95" y="-31.73" fill="none" rx="0" ry="0" transform="translate(150.97 42.81)"></rect><path fill="#fff" d="M195.468 48.84v25.2h7.2v-26.1q0-7.47-3.82-11.83-3.83-4.37-10.4-4.37-4.05 0-7.15 1.8-3.11 1.8-5.18 5.58v-6.48h-7.2v41.4h7.2v-25.2q0-3.06 1.31-5.4 1.3-2.34 3.69-3.64 2.38-1.31 5.53-1.31 4.32 0 6.57 2.61t2.25 7.74"></path><rect width="33.75" height="42.3" x="-16.88" y="-21.15" fill="none" rx="0" ry="0" transform="translate(186.3 53.39)"></rect><path fill="#fff" d="M209.868 32.64v6.75h20.7v-6.75Zm6.75-14.4v55.8h7.2v-55.8Z"></path><rect width="20.7" height="55.8" x="-10.35" y="-27.9" fill="none" rx="0" ry="0" transform="translate(220.72 46.64)"></rect><path fill="#fff" d="M253.788 74.94q6.66 0 11.57-2.65 4.9-2.66 8.14-7.88l-5.85-3.69q-2.25 3.78-5.49 5.63-3.24 1.84-7.47 1.84-4.23 0-7.2-1.8-2.97-1.8-4.5-5.22-1.53-3.42-1.53-8.28.09-4.77 1.67-8.05 1.57-3.29 4.5-5.04 2.92-1.76 7.06-1.76 3.51 0 6.12 1.53 2.61 1.53 4.1 4.23 1.48 2.7 1.48 6.39 0 .63-.27 1.58-.27.94-.54 1.39l2.88-4.14h-29.7v6.12h35.37q0-.18.05-.85.04-.68.04-1.31 0-6.57-2.34-11.34t-6.7-7.33q-4.37-2.57-10.49-2.57t-10.75 2.7q-4.64 2.7-7.2 7.56-2.57 4.86-2.57 11.34 0 6.39 2.48 11.25 2.47 4.86 6.93 7.61 4.45 2.74 10.21 2.74"></path><rect width="40.05" height="43.2" x="-20.02" y="-21.6" fill="none" rx="0" ry="0" transform="translate(254.7 53.84)"></rect><path fill="#fff" d="M291.318 32.64h-7.2v41.4h7.2Zm12.51 7.92 3.96-5.94q-1.62-1.71-3.55-2.29-1.94-.59-4.19-.59-2.88 0-5.67 2.25t-4.54 6.08q-1.76 3.82-1.76 8.77h3.24q0-2.97.59-5.31.58-2.34 2.11-3.69 1.53-1.35 4.23-1.35 1.8 0 2.97.5 1.17.49 2.61 1.57"></path><rect width="23.67" height="42.3" x="-11.84" y="-21.15" fill="none" rx="0" ry="0" transform="translate(296.45 53.39)"></rect><path fill="#fff" d="m310.938 32.64 19.8 44.55 19.8-44.55h-8.1l-11.7 29.25-11.7-29.25Z"></path><rect width="39.6" height="44.55" x="-19.8" y="-22.27" fill="none" rx="0" ry="0" transform="translate(331.24 55.41)"></rect><path fill="#fff" d="M357.288 15.54q0 1.98 1.49 3.47 1.48 1.48 3.46 1.48 2.07 0 3.51-1.48 1.44-1.49 1.44-3.47 0-2.07-1.44-3.51t-3.51-1.44q-1.98 0-3.46 1.44-1.49 1.44-1.49 3.51m1.35 17.1v41.4h7.2v-41.4Z"></path><rect width="9.9" height="63.45" x="-4.95" y="-31.73" fill="none" rx="0" ry="0" transform="translate(362.74 42.81)"></rect><path fill="#fff" d="M396.708 74.94q6.66 0 11.57-2.65 4.9-2.66 8.14-7.88l-5.85-3.69q-2.25 3.78-5.49 5.63-3.24 1.84-7.47 1.84-4.23 0-7.2-1.8-2.97-1.8-4.5-5.22-1.53-3.42-1.53-8.28.09-4.77 1.67-8.05 1.57-3.29 4.5-5.04 2.92-1.76 7.06-1.76 3.51 0 6.12 1.53 2.61 1.53 4.1 4.23 1.48 2.7 1.48 6.39 0 .63-.27 1.58-.27.94-.54 1.39l2.88-4.14h-29.7v6.12h35.37q0-.18.05-.85.04-.68.04-1.31 0-6.57-2.34-11.34t-6.7-7.33q-4.37-2.57-10.49-2.57t-10.75 2.7q-4.64 2.7-7.2 7.56-2.57 4.86-2.57 11.34 0 6.39 2.48 11.25 2.47 4.86 6.93 7.61 4.45 2.74 10.21 2.74"></path><rect width="40.05" height="43.2" x="-20.02" y="-21.6" fill="none" rx="0" ry="0" transform="translate(397.61 53.84)"></rect><path fill="#fff" d="m419.388 32.64 18 44.55 11.79-30.15 12.51 30.15 18-44.55h-8.1l-10.44 27.09-12.06-30.24-11.25 30.06-10.35-26.91Z"></path><rect width="60.3" height="47.7" x="-30.15" y="-23.85" fill="none" rx="0" ry="0" transform="translate(450.04 53.84)"></rect><path fill="#fff" d="M486.888 3.84v70.2h7.2V3.84Z"></path><rect width="7.2" height="70.2" x="-3.6" y="-35.1" fill="none" rx="0" ry="0" transform="translate(490.99 39.44)"></rect><path fill="#fff" d="M540.438 32.64h-8.1l-12.78 32.04 2.97.36-13.14-32.4h-8.55l15.84 35.55-11.34 25.65h8.1Z"></path><rect width="39.6" height="61.2" x="-19.8" y="-30.6" fill="none" rx="0" ry="0" transform="translate(521.14 63.74)"></rect><g transform="translate(55.56 29.37)scale(2.0832)"><linearGradient id="a" x1="0" x2="1" y1="0" y2="0" gradientUnits="objectBoundingBox"><stop offset="0%" stop-color="#eaa79c"></stop><stop offset="49.8%" stop-color="#f2e8cb"></stop><stop offset="100%" stop-color="#eaa79c"></stop></linearGradient><path fill="url(#a)" d="M42.675 32.17a.999.999 0 0 1-.324-.054 2.663 2.663 0 0 0-.868-.145H10.517c-.294 0-.586.049-.868.145a1 1 0 0 1-1.324-.946V8.642a3.56 3.56 0 0 1 3.557-3.557h28.236a3.56 3.56 0 0 1 3.557 3.557V31.17a1 1 0 0 1-1 1m-32.158-2.2h30.966a4.1 4.1 0 0 1 .192.005V8.642c0-.859-.698-1.557-1.557-1.557H11.882c-.859 0-1.557.698-1.557 1.557v21.333a4.1 4.1 0 0 1 .192-.004z" transform="translate(-26 -18.63)"></path></g><g transform="translate(55.55 70.86)scale(2.0832)"><linearGradient id="b" x1="0" x2="1" y1="0" y2="0" gradientUnits="objectBoundingBox"><stop offset="0%" stop-color="#eaa79c"></stop><stop offset="49.8%" stop-color="#f2e8cb"></stop><stop offset="100%" stop-color="#eaa79c"></stop></linearGradient><path fill="url(#b)" d="M46.806 46.915H5.194a3.16 3.16 0 0 1-2.571-1.3 3.161 3.161 0 0 1-.477-2.842l3.922-9.59c.414-1.34 1.522-2.477 2.934-2.96a1 1 0 1 1 .646 1.893A2.696 2.696 0 0 0 7.95 33.86l-3.923 9.59c-.085.283-.02.67.207.979.228.31.579.486.961.486h41.612c.382 0 .733-.177.96-.486a1.18 1.18 0 0 0 .178-1.062l-3.864-9.426c-.283-.896-.918-1.548-1.728-1.825a1 1 0 0 1 .646-1.892 4.706 4.706 0 0 1 2.963 3.04l3.864 9.427c.334 1.062.16 2.097-.448 2.923a3.16 3.16 0 0 1-2.571 1.301z" transform="translate(-26 -38.54)"></path></g><g transform="translate(55.56 55.3)scale(2.0832)"><linearGradient id="c" x1="0" x2="1" y1="0" y2="0" gradientUnits="objectBoundingBox"><stop offset="0%" stop-color="#eaa79c"></stop><stop offset="49.8%" stop-color="#f2e8cb"></stop><stop offset="100%" stop-color="#eaa79c"></stop></linearGradient><path fill="url(#c)" d="M42.675 32.17c-.108 0-.217-.018-.324-.054a2.663 2.663 0 0 0-.868-.145H10.517c-.294 0-.586.049-.868.145a1.001 1.001 0 0 1-.648-1.893c.49-.167 1-.252 1.516-.252h30.966c.516 0 1.026.085 1.516.253a1.001 1.001 0 0 1-.324 1.946" transform="translate(-26 -31.07)"></path></g><g transform="translate(55.56 78.95)scale(2.0832)"><linearGradient id="d" x1="0" x2="1" y1="0" y2="0" gradientUnits="objectBoundingBox"><stop offset="0%" stop-color="#eaa79c"></stop><stop offset="49.8%" stop-color="#f2e8cb"></stop><stop offset="100%" stop-color="#eaa79c"></stop></linearGradient><path fill="url(#d)" d="M33.823 46.915H18.177a1 1 0 0 1-.934-1.357l2.06-5.39a3.48 3.48 0 0 1 3.233-2.226h6.928c1.425 0 2.723.895 3.233 2.226l2.06 5.39a1 1 0 0 1-.934 1.357m-14.193-2h12.74l-1.54-4.032a1.471 1.471 0 0 0-1.366-.94h-6.928c-.601 0-1.15.377-1.364.94z" transform="translate(-26 -42.43)"></path></g><g transform="translate(55.56 29.37)scale(2.0832)"><linearGradient id="e" x1="0" x2="1" y1="0" y2="0" gradientUnits="objectBoundingBox"><stop offset="0%" stop-color="#eaa79c"></stop><stop offset="49.8%" stop-color="#f2e8cb"></stop><stop offset="100%" stop-color="#eaa79c"></stop></linearGradient><path fill="url(#e)" d="M42.675 32.17a.999.999 0 0 1-.324-.054 2.663 2.663 0 0 0-.868-.145H10.517c-.294 0-.586.049-.868.145a1 1 0 0 1-1.324-.946V8.642a3.56 3.56 0 0 1 3.557-3.557h28.236a3.56 3.56 0 0 1 3.557 3.557V31.17a1 1 0 0 1-1 1m-32.158-2.2h30.966a4.1 4.1 0 0 1 .192.005V8.642c0-.859-.698-1.557-1.557-1.557H11.882c-.859 0-1.557.698-1.557 1.557v21.333a4.1 4.1 0 0 1 .192-.004z" transform="translate(-26 -18.63)"></path></g><g transform="translate(55.55 70.86)scale(2.0832)"><linearGradient id="f" x1="0" x2="1" y1="0" y2="0" gradientUnits="objectBoundingBox"><stop offset="0%" stop-color="#eaa79c"></stop><stop offset="49.8%" stop-color="#f2e8cb"></stop><stop offset="100%" stop-color="#eaa79c"></stop></linearGradient><path fill="url(#f)" d="M46.806 46.915H5.194a3.16 3.16 0 0 1-2.571-1.3 3.161 3.161 0 0 1-.477-2.842l3.922-9.59c.414-1.34 1.522-2.477 2.934-2.96a1 1 0 1 1 .646 1.893A2.696 2.696 0 0 0 7.95 33.86l-3.923 9.59c-.085.283-.02.67.207.979.228.31.579.486.961.486h41.612c.382 0 .733-.177.96-.486a1.18 1.18 0 0 0 .178-1.062l-3.864-9.426c-.283-.896-.918-1.548-1.728-1.825a1 1 0 0 1 .646-1.892 4.706 4.706 0 0 1 2.963 3.04l3.864 9.427c.334 1.062.16 2.097-.448 2.923a3.16 3.16 0 0 1-2.571 1.301z" transform="translate(-26 -38.54)"></path></g><g transform="translate(55.56 55.3)scale(2.0832)"><linearGradient id="g" x1="0" x2="1" y1="0" y2="0" gradientUnits="objectBoundingBox"><stop offset="0%" stop-color="#eaa79c"></stop><stop offset="49.8%" stop-color="#f2e8cb"></stop><stop offset="100%" stop-color="#eaa79c"></stop></linearGradient><path fill="url(#g)" d="M42.675 32.17c-.108 0-.217-.018-.324-.054a2.663 2.663 0 0 0-.868-.145H10.517c-.294 0-.586.049-.868.145a1.001 1.001 0 0 1-.648-1.893c.49-.167 1-.252 1.516-.252h30.966c.516 0 1.026.085 1.516.253a1.001 1.001 0 0 1-.324 1.946" transform="translate(-26 -31.07)"></path></g><g transform="translate(55.56 78.95)scale(2.0832)"><linearGradient id="h" x1="0" x2="1" y1="0" y2="0" gradientUnits="objectBoundingBox"><stop offset="0%" stop-color="#eaa79c"></stop><stop offset="49.8%" stop-color="#f2e8cb"></stop><stop offset="100%" stop-color="#eaa79c"></stop></linearGradient><path fill="url(#h)" d="M33.823 46.915H18.177a1 1 0 0 1-.934-1.357l2.06-5.39a3.48 3.48 0 0 1 3.233-2.226h6.928c1.425 0 2.723.895 3.233 2.226l2.06 5.39a1 1 0 0 1-.934 1.357m-14.193-2h12.74l-1.54-4.032a1.471 1.471 0 0 0-1.366-.94h-6.928c-.601 0-1.15.377-1.364.94z" transform="translate(-26 -42.43)"></path></g><g transform="translate(55.56 19.5)scale(2.0832)"><linearGradient id="i" x1="0" x2="1" y1="0" y2="0" gradientUnits="objectBoundingBox"><stop offset="0%" stop-color="#eaa79c"></stop><stop offset="49.8%" stop-color="#f2e8cb"></stop><stop offset="100%" stop-color="#eaa79c"></stop></linearGradient><path fill="url(#i)" d="M33.24 18.886a1 1 0 0 1-1-1v-1.072c0-4.091-3.134-5.922-6.24-5.922-3.106 0-6.24 1.83-6.24 5.922v1.072a1 1 0 1 1-2 0v-1.072c0-4.665 3.388-7.922 8.24-7.922s8.24 3.257 8.24 7.922v1.072a1 1 0 0 1-1 1" transform="translate(-26 -13.89)"></path></g><g transform="translate(35.52 34.01)scale(2.0832)"><linearGradient id="j" x1="0" x2="1" y1="0" y2="0" gradientUnits="objectBoundingBox"><stop offset="0%" stop-color="#eaa79c"></stop><stop offset="49.8%" stop-color="#f2e8cb"></stop><stop offset="100%" stop-color="#eaa79c"></stop></linearGradient><path fill="url(#j)" d="M18.76 24.822h-1.792A3.973 3.973 0 0 1 13 20.854a3.973 3.973 0 0 1 3.968-3.968h1.792a1 1 0 0 1 1 1v5.936a1 1 0 0 1-1 1m-1.792-5.936A1.97 1.97 0 0 0 15 20.854a1.97 1.97 0 0 0 1.968 1.968h.792v-3.936z" transform="translate(-16.38 -20.85)"></path></g><g transform="translate(75.6 34.01)scale(2.0832)"><linearGradient id="k" x1="0" x2="1" y1="0" y2="0" gradientUnits="objectBoundingBox"><stop offset="0%" stop-color="#eaa79c"></stop><stop offset="49.8%" stop-color="#f2e8cb"></stop><stop offset="100%" stop-color="#eaa79c"></stop></linearGradient><path fill="url(#k)" d="M35.032 24.822H33.24a1 1 0 0 1-1-1v-5.936a1 1 0 0 1 1-1h1.792A3.973 3.973 0 0 1 39 20.854a3.973 3.973 0 0 1-3.968 3.968m-.792-2h.792A1.97 1.97 0 0 0 37 20.854a1.97 1.97 0 0 0-1.968-1.968h-.792z" transform="translate(-35.62 -20.85)"></path></g><g transform="translate(43.05 43.88)scale(2.0832)"><linearGradient id="l" x1="0" x2="1" y1="0" y2="0" gradientUnits="objectBoundingBox"><stop offset="0%" stop-color="#eaa79c"></stop><stop offset="49.8%" stop-color="#f2e8cb"></stop><stop offset="100%" stop-color="#eaa79c"></stop></linearGradient><path fill="url(#l)" d="M22.521 28.364h-5.06a1 1 0 0 1-1-1v-3.542a1 1 0 1 1 2 0v2.542h4.06a1 1 0 1 1 0 2" transform="translate(-20 -25.6)"></path></g></svg></svg>